<svg width="14" height="14" viewBox="0 0 14 14" fill="none" xmlns="http://www.w3.org/2000/svg">
<path d="M11.4 12H13V13.3334H9.00004V9.33337H10.3334V11.1534C11.5534 10.1734 12.3334 8.68003 12.3334 7.00003C12.3334 4.2867 10.2934 2.04003 7.66671 1.71337V0.366699C11.0334 0.700033 13.6667 3.54003 13.6667 7.00003C13.6667 8.99337 12.7867 10.78 11.4 12ZM1.66671 7.00003C1.66671 5.32003 2.44671 3.82003 3.66671 2.8467V4.6667H5.00004V0.666699H1.00004V2.00003H2.60004C1.21337 3.22003 0.333374 5.0067 0.333374 7.00003C0.333374 10.46 2.96671 13.3 6.33337 13.6334V12.2867C3.70671 11.96 1.66671 9.71337 1.66671 7.00003ZM9.82671 4.4067L6.05337 8.18003L4.16671 6.29337L3.22671 7.23337L6.05337 10.06L10.7667 5.3467L9.82671 4.4067Z" fill="#828282"/>
</svg>
